# xmcd
#
# Track frame offsets:
#	150
#	13610
#	25547
#	39750
#	51889
#	59622
#	72407
#	81944
#	95653
#	106592
#	124313
#	139367
#	159999
#	177335
#	193469
#	204880
#	216442
#	230179
#	244820
#
# Disc length: 3410 seconds
#
# Revision: 1
# Processed by: cddbd v1.5.1PL0 Copyright (c) Steve Scherf et al.
# Submitted via: EasyCDDAExtractor 7.0.6.1
#
DISCID=140d5013
DTITLE=Pfuri, Gorps und Kiniri Sack'n'Roll Band - The Best Of (live)
DYEAR=1997
DGENRE=Acoustic
TTITLE0=Big Fat Daddy - The Minstrels
TTITLE1=Grüezi Whol Frau Stirnimann - The Minstrels
TTITLE2=Hopp de Bäse - The Minstrels
TTITLE3=Rise - The Minstrels
TTITLE4=Big Bad John
TTITLE5=Big Boss Man
TTITLE6=Big Wind
TTITLE7=Goin' Down The Road
TTITLE8=Im Buurehuus
TTITLE9=Imtermezzo - General BumBum, Chilbi Blues, Echo vom Hundechor
TTITLE10=Jesse James
TTITLE11=Just A Closer Walk
TTITLE12=Midnight Special
TTITLE13=Rock Island Line
TTITLE14=Stranger Blues
TTITLE15=Summertime Blues
TTITLE16=This Land Is Your Land
TTITLE17=Tom Dooley
TTITLE18=Zapfenzieher Blues
EXTD=
EXTT0=
EXTT1=
EXTT2=
EXTT3=
EXTT4=
EXTT5=
EXTT6=
EXTT7=
EXTT8=
EXTT9=
EXTT10=
EXTT11=
EXTT12=
EXTT13=
EXTT14=
EXTT15=
EXTT16=
EXTT17=
EXTT18=
PLAYORDER=
